<svg width="42" height="42" viewBox="0 0 42 42" fill="none" xmlns="http://www.w3.org/2000/svg">
<path d="M12.25 19.25C12.25 15.9502 12.25 14.3003 13.2751 13.2751C14.3003 12.25 15.9502 12.25 19.25 12.25H22.75C26.0498 12.25 27.6997 12.25 28.7249 13.2751C29.75 14.3003 29.75 15.9502 29.75 19.25V22.75C29.75 26.0498 29.75 27.6997 28.7249 28.7249C27.6997 29.75 26.0498 29.75 22.75 29.75H19.25C15.9502 29.75 14.3003 29.75 13.2751 28.7249C12.25 27.6997 12.25 26.0498 12.25 22.75V19.25Z" stroke="#654DEE" stroke-width="2"/>
<rect x="17.5" y="17.5" width="7" height="7" rx="1" fill="#654DEE"/>
<path d="M17.5 12.25V7" stroke="#654DEE" stroke-width="2" stroke-linecap="round"/>
<path d="M24.5 12.25V7" stroke="#654DEE" stroke-width="2" stroke-linecap="round"/>
<path d="M29.75 17.5L35 17.5" stroke="#654DEE" stroke-width="2" stroke-linecap="round"/>
<path d="M29.75 24.5L35 24.5" stroke="#654DEE" stroke-width="2" stroke-linecap="round"/>
<path d="M17.5 35V29.75" stroke="#654DEE" stroke-width="2" stroke-linecap="round"/>
<path d="M24.5 35V29.75" stroke="#654DEE" stroke-width="2" stroke-linecap="round"/>
<path d="M7 17.5L12.25 17.5" stroke="#654DEE" stroke-width="2" stroke-linecap="round"/>
<path d="M7 24.5L12.25 24.5" stroke="#654DEE" stroke-width="2" stroke-linecap="round"/>
</svg>
