<svg width="42" height="42" viewBox="0 0 42 42" fill="none" xmlns="http://www.w3.org/2000/svg">
<path d="M19.2111 35.8556L18.7639 36.75H18.7639L19.2111 35.8556ZM22.7889 35.8556L22.3416 34.9611L22.3416 34.9611L22.7889 35.8556ZM23.3944 35.5528L23.8416 36.4472L23.3944 35.5528ZM24.5386 33.7647L23.5406 33.7022L24.5386 33.7647ZM24.3318 34.935L25.1656 35.4871L24.3318 34.935ZM17.4614 33.7647L16.4633 33.8272L17.4614 33.7647ZM18.6056 35.5528L19.0528 34.6584L18.6056 35.5528ZM17.6682 34.935L16.8344 35.4871L17.6682 34.935ZM15.0719 26.1677L14.5067 26.9926L15.0719 26.1677ZM15.8253 27.0369L16.7406 26.6341L15.8253 27.0369ZM15.5722 26.557L14.8024 27.1953L15.5722 26.557ZM26.9281 26.1677L27.4933 26.9926L26.9281 26.1677ZM26.1747 27.0369L25.2594 26.6341L26.1747 27.0369ZM26.4278 26.557L25.658 25.9186L26.4278 26.557ZM30.5 17.5C30.5 20.7558 28.8631 23.6295 26.3628 25.3428L27.4933 26.9926C30.5145 24.9224 32.5 21.4432 32.5 17.5H30.5ZM21 8C26.2467 8 30.5 12.2533 30.5 17.5H32.5C32.5 11.1487 27.3513 6 21 6V8ZM11.5 17.5C11.5 12.2533 15.7533 8 21 8V6C14.6487 6 9.5 11.1487 9.5 17.5H11.5ZM15.6372 25.3428C13.1369 23.6295 11.5 20.7558 11.5 17.5H9.5C9.5 21.4432 11.4855 24.9224 14.5067 26.9926L15.6372 25.3428ZM18.4594 33.7022C18.3066 31.2612 17.7239 28.8685 16.7406 26.6341L14.91 27.4397C15.7987 29.459 16.3252 31.6213 16.4633 33.8272L18.4594 33.7022ZM19.6584 34.9611L19.0528 34.6584L18.1584 36.4472L18.7639 36.75L19.6584 34.9611ZM22.3416 34.9611C21.4971 35.3834 20.5029 35.3834 19.6584 34.9611L18.7639 36.75C20.1716 37.4538 21.8284 37.4538 23.2361 36.75L22.3416 34.9611ZM22.9472 34.6584L22.3416 34.9611L23.2361 36.75L23.8416 36.4472L22.9472 34.6584ZM25.2594 26.6341C24.2761 28.8685 23.6934 31.2612 23.5406 33.7022L25.5367 33.8272C25.6748 31.6213 26.2013 29.459 27.09 27.4397L25.2594 26.6341ZM23.8416 36.4472C24.088 36.324 24.3352 36.2016 24.5347 36.0771C24.7497 35.9429 24.9828 35.7632 25.1656 35.4871L23.498 34.383C23.5332 34.3297 23.5609 34.3273 23.4757 34.3804C23.375 34.4433 23.2274 34.5183 22.9472 34.6584L23.8416 36.4472ZM23.5406 33.7022C23.5197 34.0362 23.5072 34.2209 23.4871 34.3524C23.4689 34.472 23.4575 34.444 23.498 34.383L25.1656 35.4871C25.3535 35.2032 25.4258 34.906 25.4643 34.6539C25.5009 34.4139 25.518 34.1249 25.5367 33.8272L23.5406 33.7022ZM16.4633 33.8272C16.482 34.1249 16.4991 34.4139 16.5357 34.6539C16.5742 34.906 16.6465 35.2032 16.8344 35.4871L18.502 34.383C18.5425 34.444 18.5311 34.472 18.5129 34.3524C18.4928 34.2209 18.4803 34.0362 18.4594 33.7022L16.4633 33.8272ZM19.0528 34.6584C18.7726 34.5183 18.625 34.4433 18.5243 34.3804C18.4391 34.3273 18.4668 34.3297 18.502 34.383L16.8344 35.4871C17.0172 35.7632 17.2503 35.9429 17.4653 36.0771C17.6648 36.2016 17.912 36.324 18.1584 36.4472L19.0528 34.6584ZM14.5067 26.9926C14.6516 27.0919 14.7311 27.1467 14.7872 27.1893C14.8391 27.2286 14.8277 27.2258 14.8024 27.1953L16.342 25.9186C16.1409 25.6762 15.8541 25.4914 15.6372 25.3428L14.5067 26.9926ZM16.7406 26.6341C16.6517 26.4321 16.5402 26.1577 16.342 25.9186L14.8024 27.1953C14.7858 27.1752 14.7834 27.1652 14.8002 27.1981C14.8097 27.2168 14.8226 27.2437 14.8415 27.2854C14.8606 27.3274 14.882 27.3761 14.91 27.4397L16.7406 26.6341ZM26.3628 25.3428C26.1459 25.4914 25.8591 25.6762 25.658 25.9186L27.1976 27.1953C27.1723 27.2258 27.1609 27.2286 27.2128 27.1893C27.2689 27.1467 27.3484 27.0919 27.4933 26.9926L26.3628 25.3428ZM27.09 27.4397C27.118 27.3761 27.1394 27.3274 27.1585 27.2854C27.1774 27.2437 27.1903 27.2168 27.1998 27.1981C27.2166 27.1652 27.2142 27.1752 27.1976 27.1953L25.658 25.9186C25.4598 26.1577 25.3483 26.4321 25.2594 26.6341L27.09 27.4397Z" fill="#654DEE"/>
<path d="M26.2365 28V28C23.0671 30.1185 18.9335 30.1185 15.7641 28V28" stroke="#654DEE" stroke-width="2"/>
</svg>
