<svg width="42" height="42" viewBox="0 0 42 42" fill="none" xmlns="http://www.w3.org/2000/svg">
<path d="M26.6407 21.3106L27.2857 20.5464L26.6407 21.3106ZM15.3593 21.3106L16.0043 22.0747L15.3593 21.3106ZM16.75 8.25C16.75 7.14543 17.6454 6.25 18.75 6.25V4.25C16.5409 4.25 14.75 6.04086 14.75 8.25H16.75ZM16.75 20.4998V8.25H14.75V20.4998H16.75ZM13.25 28C13.25 25.6237 14.3183 23.4979 16.0043 22.0747L14.7143 20.5464C12.5973 22.3334 11.25 25.0098 11.25 28H13.25ZM21 35.75C16.7198 35.75 13.25 32.2802 13.25 28H11.25C11.25 33.3848 15.6152 37.75 21 37.75V35.75ZM28.75 28C28.75 32.2802 25.2802 35.75 21 35.75V37.75C26.3848 37.75 30.75 33.3848 30.75 28H28.75ZM25.9957 22.0747C27.6817 23.4979 28.75 25.6237 28.75 28H30.75C30.75 25.0098 29.4027 22.3334 27.2857 20.5464L25.9957 22.0747ZM25.25 8.25V20.4998H27.25V8.25H25.25ZM23.25 6.25C24.3546 6.25 25.25 7.14543 25.25 8.25H27.25C27.25 6.04086 25.4591 4.25 23.25 4.25V6.25ZM18.75 6.25H23.25V4.25H18.75V6.25ZM27.2857 20.5464C27.2679 20.5314 27.2579 20.5166 27.2532 20.507C27.2489 20.4983 27.25 20.4962 27.25 20.4998H25.25C25.25 21.1387 25.5541 21.702 25.9957 22.0747L27.2857 20.5464ZM14.75 20.4998C14.75 20.4962 14.7511 20.4983 14.7468 20.507C14.7421 20.5166 14.7321 20.5314 14.7143 20.5464L16.0043 22.0747C16.4459 21.702 16.75 21.1387 16.75 20.4998H14.75Z" fill="#654DEE"/>
<circle cx="21" cy="28" r="3.5" fill="#654DEE"/>
</svg>
